<?xml version="1.0"?>
<svg width="1024" height="768" xmlns="http://www.w3.org/2000/svg" xmlns:svg="http://www.w3.org/2000/svg" preserveAspectRatio="xMidYMid meet" version="1.0">
 <metadata>Created by potrace 1.16, written by Peter Selinger 2001-2019</metadata>
 <g class="layer">
  <title>Layer 1</title>
  <path d="m644.46,441.06c-7.47,2.38 -20.58,13.32 -21.85,18.23c-0.7,2.95 -1.69,3.23 -12.97,3.79c-10.15,0.42 -13.25,1.26 -18.04,4.21c-10.99,7.01 -18.89,20.48 -18.89,32.54c0,18.79 14.38,35.06 33.83,38.01c4.37,0.7 7.89,2.38 11.28,5.75c9.3,8.84 25.23,13.46 35.94,10.52c2.96,-0.84 5.78,-1.12 6.06,-0.84c1.27,1.26 -3.95,19.5 -6.34,22.02c-2.11,2.38 -2.11,2.52 2.54,1.68c12.4,-2.24 26.36,-11.22 32.28,-21.04c4.93,-7.85 8.32,-6.59 13.95,5.33c5.78,12.34 16.07,22.72 28.76,28.89c4.93,2.38 10.15,5.75 11.7,7.43c5.78,6.45 25.65,13.89 36.93,13.89l6.2,0l-4.93,-5.47c-4.79,-5.33 -8.74,-11.36 -7.75,-11.92c0.28,-0.14 2.96,-1.12 6.06,-2.1c22.84,-7.85 38.76,-31 38.76,-56.38c0,-28.89 -16.63,-50.91 -45.11,-59.61c-7.47,-2.24 -22.55,-2.52 -29.74,-0.56c-4.79,1.4 -5.22,1.12 -13.39,-6.73c-10.99,-10.66 -19.17,-14.31 -32.56,-15.01c-8.88,-0.28 -11.14,-0.98 -14.24,-3.93c-9.87,-9.12 -25.94,-12.76 -38.48,-8.7zm147.16,71.11c1.13,1.68 0.99,2.95 -0.28,4.49c-1.55,1.82 -5.64,2.24 -25.65,2.24l-23.82,0l0.85,-3.93c0.56,-2.1 1.27,-4.21 1.55,-4.91c0.42,-0.56 10.85,-0.84 23.26,-0.7c19.31,0.42 22.84,0.7 24.1,2.81zm-0.42,20.06c0.99,1.12 1.41,3.09 0.85,4.21c-0.7,1.82 -5.36,2.1 -32.14,2.1l-31.29,0l4.09,-4.21l4.09,-4.21l26.36,0c21.57,0 26.64,0.42 28.05,2.1zm-0.56,19.5c2.11,1.68 2.4,2.52 1.13,4.63c-1.41,2.24 -4.51,2.52 -35.8,2.95c-33.13,0.28 -38.06,-0.14 -38.06,-4.07c0,-0.56 0.99,-2.1 2.26,-3.23c3.1,-3.23 66.25,-3.37 70.48,-0.28z" id="svg_15"/>
  <g id="svg_1">
   <path d="m642.01,136.83c-7.46,3.38 -12.49,8.51 -16.01,16.07c-2.85,6.08 -2.99,8.24 -3.39,55.9l-0.41,49.69l10.18,0l10.18,0l0.41,-48.75l0.41,-48.75l3.8,-3.24l3.8,-3.24l43.7,0c53.88,0 50.21,-1.35 51.16,19.17l0.68,13.91l9.91,0.41l9.77,0.41l0,-12.56c0,-6.89 -0.68,-15.26 -1.49,-18.5c-1.76,-8.1 -8.01,-15.39 -16.42,-19.58l-7.06,-3.51l-46.82,0c-42.75,0 -47.5,0.27 -52.38,2.57z" id="svg_2"/>
   <path d="m750.44,210.28c-9.64,14.45 -13.03,21.87 -13.03,28.76c0,15.26 17.64,24.31 29.99,15.53c5.02,-3.51 8.28,-9.99 8.28,-16.2c0,-4.59 -10.45,-25.52 -16.01,-32.14l-3.66,-4.46l-5.56,8.51zm14.25,16.61c13.03,9.18 2.71,29.3 -12.76,25.12c-4.89,-1.35 -10.18,-8.64 -10.18,-14.04c0,-6.21 7.74,-13.23 14.52,-13.23c2.85,0 6.65,0.95 8.41,2.16z" id="svg_4"/>
   <path d="m753.02,227.03c-3.94,0.81 -8.55,6.62 -8.55,10.8c0,4.19 3.39,10.67 6.11,11.75c1.22,0.41 4.34,0.81 6.79,0.81c5.16,0 11.54,-6.21 11.54,-11.21c0,-3.92 -4.89,-11.75 -7.33,-11.75c-1.09,0 -2.71,-0.27 -3.8,-0.54c-0.95,-0.27 -3.12,-0.14 -4.75,0.14z" id="svg_5"/>
   <path d="m662.64,252.82c-15.47,15.39 -17.1,17.55 -15.2,19.17c1.9,1.62 4.34,-0.27 19.68,-15.66c9.64,-9.59 17.64,-18.23 17.64,-19.17c0,-4.59 -6.38,0 -22.12,15.66z" id="svg_7"/>
   <path d="m625.73,271.18c-14.93,6.62 -18.18,23.63 -6.79,34.57c4.61,4.46 5.43,4.73 14.38,4.73c9.5,0 9.64,0 14.93,-5.67c4.89,-5.27 5.29,-6.21 5.29,-13.77c0,-7.29 -0.54,-8.64 -4.34,-13.1c-7.19,-8.1 -15.2,-10.4 -23.48,-6.75z" id="svg_8"/>
   <path d="m744.06,274.83c-12.48,6.62 -16.56,23.5 -8.41,35.24c5.02,7.02 11.4,10.4 19.81,10.53c16.42,0.14 27.41,-12.29 25.24,-28.49c-2.04,-15.66 -21.98,-24.98 -36.64,-17.28zm22.53,5.13c4.61,2.57 9.09,10.53 9.09,16.07c0,6.35 -3.66,13.23 -8.55,16.34c-7.33,4.46 -12.21,4.86 -19.13,1.62c-8.14,-4.05 -10.86,-8.37 -10.86,-17.96c-0.14,-7.02 0.41,-8.24 4.61,-12.56c7.33,-7.56 15.74,-8.78 24.83,-3.51z" id="svg_9"/>
   <path d="m747.73,281.31c-6.38,3.92 -8.69,7.97 -8.69,15.39c0,5.67 0.68,7.29 4.48,11.07c8.28,8.24 21.71,7.16 27.14,-2.03c9.09,-15.26 -8.01,-33.49 -22.93,-24.44z" id="svg_10"/>
   <path d="m615.55,313.99l0,6.62l17.64,0l17.64,0l0,-6.62l0,-6.75l-5.7,3.24c-3.8,2.16 -8.01,3.38 -11.94,3.38c-3.94,0 -8.14,-1.22 -11.81,-3.38l-5.84,-3.24l0,6.75z" id="svg_11"/>
   <path d="m611.75,327.63l0.41,4.46l21.03,0l21.03,0l0.41,-4.46l0.41,-4.32l-21.85,0l-21.85,0l0.41,4.32z" id="svg_12"/>
   <path d="m581.62,342.21l0,6.75l114.67,0l114.67,0l0,-6.75l0,-6.75l-114.67,0l-114.67,0l0,6.75z" id="svg_13"/>
  </g>
  <g id="svg_17">
   <path d="m227.79,142.82c-0.39,1.7 -1.97,14.87 -3.41,29.22c-1.57,14.35 -3.15,27.39 -3.54,28.96l-0.66,3l99.1,0l99.1,0l0,32.61c0,30.65 0.13,32.61 2.36,32.61c2.1,0 2.75,-2.74 5.37,-25.17c1.57,-13.7 4.46,-37.04 6.16,-51.65c1.7,-14.61 2.88,-26.87 2.49,-27.26c-0.66,-0.78 -25.43,-3.91 -62.92,-8.09c-12.98,-1.43 -35.65,-4.04 -50.47,-5.87c-14.81,-1.83 -39.85,-4.7 -55.71,-6.52c-15.86,-1.83 -30.67,-3.65 -33.03,-4.04c-3.67,-0.65 -4.33,-0.39 -4.85,2.22zm32.51,17.48c26.87,3.26 65.15,7.7 129.25,15.13c19.79,2.22 36.83,4.3 37.75,4.57c1.18,0.39 1.44,2.48 0.79,7.96c-0.52,4.17 -1.18,7.96 -1.7,8.35c-0.39,0.39 -14.68,-0.91 -31.59,-2.87c-50.86,-6.13 -108.93,-12.91 -116.66,-13.7c-3.93,-0.39 -15.99,-1.83 -26.74,-3.26c-10.62,-1.3 -20.32,-2.48 -21.37,-2.48c-1.44,0 -1.57,-1.43 -1.05,-6.91c1.05,-8.74 1.57,-10.04 3.41,-10.04c0.79,0 13.37,1.43 27.92,3.26z" id="svg_3"/>
   <path d="m206.03,259.43l0,52.82l104.21,0l104.21,0l0,-39.78l0,-39.78l-99.62,0l-99.62,0l0,-8.48l0,-8.48l99.62,0l99.62,0l0,-4.57l0,-4.57l-104.21,0l-104.21,0l0,52.82z" id="svg_6"/>
  </g>
  <g id="svg_18">
   <path d="m319.42,415.03c-6.18,6.43 -7.87,11.46 -5.9,17.19c1.55,4.19 1.26,5.59 -3.23,14.96c-5.9,12.3 -15.59,25.44 -24.59,33.13c-5.62,4.75 -6.88,5.31 -9.83,3.91c-2.81,-1.26 -3.93,-0.84 -8.15,3.22c-5.34,5.17 -8.57,12.72 -6.74,15.8c4.64,8.11 57.6,46.27 66.31,47.95c4.07,0.84 5.2,0.28 11.52,-6.43c7.02,-7.41 8.85,-13.28 4.78,-14.82c-1.12,-0.56 -2.11,-1.54 -2.11,-2.52c0,-1.4 8.01,-19.01 9.13,-20.27c0.42,-0.28 3.09,1.54 6.04,4.19c2.95,2.66 7.59,6.43 10.26,8.53c2.67,1.96 12.64,10.07 22.34,18.03c9.69,7.83 19.53,15.94 22.06,17.89c22.48,18.17 41.59,32.29 43.97,32.29c2.81,0 8.71,-6.29 12.22,-13c2.11,-4.19 2.11,-4.33 -2.53,-8.11c-7.45,-6.15 -37.09,-25.72 -75.87,-50.19c-8.01,-5.03 -17.42,-11.18 -21.21,-13.7c-3.65,-2.38 -7.31,-4.47 -8.15,-4.47c-2.95,0 -1.12,-2.66 7.17,-11.04c7.45,-7.55 9.13,-8.53 12.36,-7.83c3.37,0.7 4.78,-0.14 9.83,-5.59c3.23,-3.49 6.6,-7.97 7.45,-9.93c1.69,-3.49 1.4,-4.05 -4.5,-9.23c-6.6,-5.73 -10.54,-8.53 -32.31,-23.35c-16.72,-11.18 -29.5,-19.15 -33.16,-20.27c-1.97,-0.56 -4.07,0.42 -7.17,3.63z" id="svg_14"/>
   <path d="m263.93,569.93c-25.85,2.38 -30.63,5.03 -30.63,17.47c0,6.71 -0.42,7.69 -2.81,7.69c-4.78,0 -9.98,3.22 -12.22,7.55c-2.39,4.61 -4.07,19.71 -2.81,24.88l0.84,3.22l67.86,-1.12c37.37,-0.7 68.42,-1.82 69.12,-2.38c0.7,-0.7 1.26,-5.59 1.26,-10.76c0.14,-12.3 -3.93,-20.69 -10.54,-22.51c-4.21,-0.98 -4.64,-1.82 -6.04,-8.81c-1.97,-9.79 -2.81,-10.9 -8.99,-13.42c-6.18,-2.66 -44.4,-3.63 -65.05,-1.82z" id="svg_16"/>
  </g>
 </g>
</svg>