<?xml version="1.0"?>
<svg width="250" height="250" xmlns="http://www.w3.org/2000/svg" xmlns:svg="http://www.w3.org/2000/svg">
 <g class="layer">
  <title>Layer 1</title>
  <g id="svg_1" transform="matrix(0.414727 0 0 0.421125 116.407 115.673)">
   <g id="svg_2" transform="matrix(0.1 0 0 -0.1 0 500)">
    <path d="m945.22,6602.37c-55,-25 -92,-63 -118,-119c-21,-45 -22,-61 -25,-414l0,0l-3,-368l75,0l75,0l3,361l3,361l28,24l28,24l322,0c397,0 370,10 377,-142l0,0l5,-103l73,-3l72,-3l0,93c0,51 -5,113 -11,137c-13,60 -59,114 -121,145l0,0l-52,26l-345,0c-315,0 -350,-2 -386,-19z" fill="#000000" fill-rule="nonzero" id="svg_3"/>
    <path d="m-1503.78,6540.37c-3,-13 -15,-114 -26,-224c-12,-110 -24,-210 -27,-222l0,0l-5,-23l756,0l756,0l0,-250c0,-235 1,-250 18,-250c16,0 21,21 41,193c12,105 34,284 47,396c13,112 22,206 19,209c-5,6 -194,30 -480,62c-99,11 -272,31 -385,45c-113,14 -304,36 -425,50c-121,14 -234,28 -252,31c-28,5 -33,3 -37,-17zm248,-134c205,-25 497,-59 986,-116c151,-17 281,-33 288,-35c9,-3 11,-19 6,-61c-4,-32 -9,-61 -13,-64c-3,-3 -112,7 -241,22c-388,47 -831,99 -890,105c-30,3 -122,14 -204,25c-81,10 -155,19 -163,19c-11,0 -12,11 -8,53c8,67 12,77 26,77c6,0 102,-11 213,-25z" fill="#000000" fill-rule="nonzero" id="svg_4"/>
    <path d="m1744.22,6058.37c-71,-107 -96,-162 -96,-213c0,-113 130,-180 221,-115c37,26 61,74 61,120c0,34 -77,189 -118,238l0,0l-27,33l-41,-63zm105,-123c96,-68 20,-217 -94,-186c-36,10 -75,64 -75,104c0,46 57,98 107,98c21,0 49,-7 62,-16z" fill="#000000" fill-rule="nonzero" id="svg_5"/>
    <path d="m1763.22,5934.37c-29,-6 -63,-49 -63,-80c0,-31 25,-79 45,-87c9,-3 32,-6 50,-6c38,0 85,46 85,83c0,29 -36,87 -54,87c-8,0 -20,2 -28,4c-7,2 -23,1 -35,-1z" fill="#000000" fill-rule="nonzero" id="svg_6"/>
    <path d="m-1669.78,5646.37l0,-405l795,0l795,0l0,305l0,305l-760,0l-760,0l0,65l0,65l760,0l760,0l0,35l0,35l-795,0l-795,0l0,-405z" fill="#000000" fill-rule="nonzero" id="svg_7"/>
    <path d="m1097.22,5743.37c-114,-114 -126,-130 -112,-142c14,-12 32,2 145,116c71,71 130,135 130,142c0,34 -47,0 -163,-116z" fill="#000000" fill-rule="nonzero" id="svg_8"/>
    <path d="m825.22,5607.37c-110,-49 -134,-175 -50,-256c34,-33 40,-35 106,-35c70,0 71,0 110,42c36,39 39,46 39,102c0,54 -4,64 -32,97c-53,60 -112,77 -173,50z" fill="#000000" fill-rule="nonzero" id="svg_9"/>
    <path d="m1697.22,5580.37c-92,-49 -122,-174 -62,-261c37,-52 84,-77 146,-78c121,-1 202,91 186,211c-15,116 -162,185 -270,128zm166,-38c34,-19 67,-78 67,-119c0,-47 -27,-98 -63,-121c-54,-33 -90,-36 -141,-12c-60,30 -80,62 -80,133c-1,52 3,61 34,93c54,56 116,65 183,26z" fill="#000000" fill-rule="nonzero" id="svg_10"/>
    <path d="m1724.22,5532.37c-47,-29 -64,-59 -64,-114c0,-42 5,-54 33,-82c61,-61 160,-53 200,15c67,113 -59,248 -169,181z" fill="#000000" fill-rule="nonzero" id="svg_11"/>
    <path d="m750.22,5290.37l0,-49l130,0l130,0l0,49l0,50l-42,-24c-28,-16 -59,-25 -88,-25c-29,0 -60,9 -87,25l0,0l-43,24l0,-50z" fill="#000000" fill-rule="nonzero" id="svg_12"/>
    <path d="m722.22,5189.37l3,-33l155,0l155,0l3,33l3,32l-161,0l-161,0l3,-32z" fill="#000000" fill-rule="nonzero" id="svg_13"/>
    <path d="m500.22,5081.37l0,-50l845,0l845,0l0,50l0,50l-845,0l-845,0l0,-50z" fill="#000000" fill-rule="nonzero" id="svg_14"/>
    <path d="m-926.78,4409.37c-44,-46 -56,-82 -42,-123c11,-30 9,-40 -23,-107c-42,-88 -111,-182 -175,-237c-40,-34 -49,-38 -70,-28c-20,9 -28,6 -58,-23c-38,-37 -61,-91 -48,-113c33,-58 410,-331 472,-343c29,-6 37,-2 82,46c50,53 63,95 34,106c-8,4 -15,11 -15,18c0,10 57,136 65,145c3,2 22,-11 43,-30c21,-19 54,-46 73,-61c19,-14 90,-72 159,-129c69,-56 139,-114 157,-128c160,-130 296,-231 313,-231c20,0 62,45 87,93c15,30 15,31 -18,58c-53,44 -264,184 -540,359c-57,36 -124,80 -151,98c-26,17 -52,32 -58,32c-21,0 -8,19 51,79c53,54 65,61 88,56c24,-5 34,1 70,40c23,25 47,57 53,71c12,25 10,29 -32,66c-47,41 -75,61 -230,167c-119,80 -210,137 -236,145c-14,4 -29,-3 -51,-26z" fill="#000000" fill-rule="nonzero" id="svg_15"/>
    <path d="m949.22,4096.37c-53,-17 -146,-95 -155,-130c-5,-21 -12,-23 -92,-27c-72,-3 -94,-9 -128,-30c-78,-50 -134,-146 -134,-232c0,-134 102,-250 240,-271c31,-5 56,-17 80,-41c66,-63 179,-96 255,-75c21,6 41,8 43,6c9,-9 -28,-139 -45,-157c-15,-17 -15,-18 18,-12c88,16 187,80 229,150c35,56 59,47 99,-38c41,-88 114,-162 204,-206c35,-17 72,-41 83,-53c41,-46 182,-99 262,-99l0,0l44,0l-35,39c-34,38 -62,81 -55,85c2,1 21,8 43,15c162,56 275,221 275,402c0,206 -118,363 -320,425c-53,16 -160,18 -211,4c-34,-10 -37,-8 -95,48c-78,76 -136,102 -231,107c-63,2 -79,7 -101,28c-70,65 -184,91 -273,62zm1044,-507c8,-12 7,-21 -2,-32c-11,-13 -40,-16 -182,-16l0,0l-169,0l6,28c4,15 9,30 11,35c3,4 77,6 165,5c137,-3 162,-5 171,-20zm-3,-143c7,-8 10,-22 6,-30c-5,-13 -38,-15 -228,-15l0,0l-222,0l29,30l29,30l187,0c153,0 189,-3 199,-15zm-4,-139c15,-12 17,-18 8,-33c-10,-16 -32,-18 -254,-21c-235,-2 -270,1 -270,29c0,4 7,15 16,23c22,23 470,24 500,2z" fill="#000000" fill-rule="nonzero" id="svg_16"/>
    <path d="m-1321.78,3301.37c-184,-17 -218,-36 -218,-125c0,-48 -3,-55 -20,-55c-34,0 -71,-23 -87,-54c-17,-33 -29,-141 -20,-178l0,0l6,-23l483,8c266,5 487,13 492,17c5,5 9,40 9,77c1,88 -28,148 -75,161c-30,7 -33,13 -43,63c-14,70 -20,78 -64,96c-44,19 -316,26 -463,13z" fill="#000000" fill-rule="nonzero" id="svg_17"/>
   </g>
  </g>
 </g>
</svg>